<?xml version="1.0" encoding="UTF-8" standalone="no"?>
<!DOCTYPE svg PUBLIC "-//W3C//DTD SVG 1.1//EN"
 "http://www.w3.org/Graphics/SVG/1.1/DTD/svg11.dtd">
<!-- Generated by graphviz version 9.0.0 (20230911.1827)
 -->
<!-- Title: SequenceApprox Pages: 1 -->
<svg width="1365pt" height="258pt"
 viewBox="0.00 0.00 1365.00 258.42" xmlns="http://www.w3.org/2000/svg" xmlns:xlink="http://www.w3.org/1999/xlink">
<g id="graph0" class="graph" transform="scale(1 1) rotate(0) translate(4 254.42)">
<title>SequenceApprox</title>
<polygon fill="white" stroke="none" points="-4,4 -4,-254.42 1361,-254.42 1361,4 -4,4"/>
<!-- U -->
<g id="node1" class="node">
<title>U</title>
<polygon fill="none" stroke="black" points="54,-147.17 0,-147.17 0,-111.17 54,-111.17 54,-147.17"/>
<text text-anchor="middle" x="27" y="-126.04" font-family="Times,serif" font-size="10.00">User</text>
</g>
<!-- UI -->
<g id="node2" class="node">
<title>UI</title>
<polygon fill="none" stroke="black" points="268,-147.17 194.25,-147.17 194.25,-111.17 268,-111.17 268,-147.17"/>
<text text-anchor="middle" x="231.12" y="-126.04" font-family="Times,serif" font-size="10.00">UI/CLI/ACP</text>
</g>
<!-- U&#45;&gt;UI -->
<g id="edge1" class="edge">
<title>U&#45;&gt;UI</title>
<path fill="none" stroke="black" d="M54.42,-129.17C86.86,-129.17 142.46,-129.17 182.44,-129.17"/>
<polygon fill="black" stroke="black" points="182.27,-132.67 192.27,-129.17 182.27,-125.67 182.27,-132.67"/>
<text text-anchor="middle" x="124.12" y="-133.12" font-family="Times,serif" font-size="14.00">Request / Task</text>
</g>
<!-- GO -->
<g id="node3" class="node">
<title>GO</title>
<polygon fill="none" stroke="black" points="577.25,-147.17 445.75,-147.17 445.75,-111.17 577.25,-111.17 577.25,-147.17"/>
<text text-anchor="middle" x="511.5" y="-126.04" font-family="Times,serif" font-size="10.00">Goose Server (goosed)</text>
</g>
<!-- UI&#45;&gt;GO -->
<g id="edge2" class="edge">
<title>UI&#45;&gt;GO</title>
<path fill="none" stroke="black" d="M268.23,-129.17C310.05,-129.17 380.12,-129.17 434.18,-129.17"/>
<polygon fill="black" stroke="black" points="433.94,-132.67 443.94,-129.17 433.94,-125.67 433.94,-132.67"/>
<text text-anchor="middle" x="356.88" y="-133.12" font-family="Times,serif" font-size="14.00">Message + settings</text>
</g>
<!-- GO&#45;&gt;UI -->
<g id="edge11" class="edge">
<title>GO&#45;&gt;UI</title>
<path fill="none" stroke="black" d="M445.3,-110.81C439.4,-109.64 433.49,-108.64 427.75,-107.92 365.25,-100.02 347.89,-96.15 286,-107.92 283.81,-108.33 281.6,-108.84 279.39,-109.41"/>
<polygon fill="black" stroke="black" points="278.38,-106.06 269.83,-112.31 280.41,-112.75 278.38,-106.06"/>
<text text-anchor="middle" x="356.88" y="-112.12" font-family="Times,serif" font-size="14.00">Response to user</text>
</g>
<!-- AE -->
<g id="node4" class="node">
<title>AE</title>
<polygon fill="none" stroke="black" points="948.75,-147.17 862.25,-147.17 862.25,-111.17 948.75,-111.17 948.75,-147.17"/>
<text text-anchor="middle" x="905.5" y="-126.04" font-family="Times,serif" font-size="10.00">Agent Engine</text>
</g>
<!-- GO&#45;&gt;AE -->
<g id="edge3" class="edge">
<title>GO&#45;&gt;AE</title>
<path fill="none" stroke="black" d="M577.67,-129.17C654.08,-129.17 779.3,-129.17 850.52,-129.17"/>
<polygon fill="black" stroke="black" points="850.38,-132.67 860.38,-129.17 850.38,-125.67 850.38,-132.67"/>
<text text-anchor="middle" x="719.75" y="-133.12" font-family="Times,serif" font-size="14.00">Start/Update session</text>
</g>
<!-- AE&#45;&gt;GO -->
<g id="edge10" class="edge">
<title>AE&#45;&gt;GO</title>
<path fill="none" stroke="black" d="M861.86,-112.15C856.02,-110.4 850.04,-108.91 844.25,-107.92 735.17,-89.25 705.04,-94.05 595.25,-107.92 593.19,-108.18 591.1,-108.48 589,-108.8"/>
<polygon fill="black" stroke="black" points="588.43,-105.35 579.19,-110.55 589.65,-112.24 588.43,-105.35"/>
<text text-anchor="middle" x="719.75" y="-112.12" font-family="Times,serif" font-size="14.00">Message + logs + context revision</text>
</g>
<!-- LLM -->
<g id="node5" class="node">
<title>LLM</title>
<polygon fill="none" stroke="black" points="1333,-187.17 1246.5,-187.17 1246.5,-151.17 1333,-151.17 1333,-187.17"/>
<text text-anchor="middle" x="1289.75" y="-166.04" font-family="Times,serif" font-size="10.00">LLM Provider</text>
</g>
<!-- AE&#45;&gt;LLM -->
<g id="edge4" class="edge">
<title>AE&#45;&gt;LLM</title>
<path fill="none" stroke="black" d="M914.49,-147.36C923.92,-166.27 941.56,-194.8 966.75,-207.17 1061.59,-253.75 1101.2,-229.39 1204.5,-207.17 1218.73,-204.11 1233.46,-198.44 1246.55,-192.4"/>
<polygon fill="black" stroke="black" points="1247.8,-195.68 1255.28,-188.18 1244.76,-189.38 1247.8,-195.68"/>
<text text-anchor="middle" x="1085.62" y="-237.12" font-family="Times,serif" font-size="14.00">Prompt + tools (router&#45;selected)</text>
</g>
<!-- AE&#45;&gt;LLM -->
<g id="edge8" class="edge">
<title>AE&#45;&gt;LLM</title>
<path fill="none" stroke="black" d="M929.06,-147.62C939.79,-155.24 953.22,-163.21 966.75,-167.17 1057.99,-193.85 1170.09,-185.97 1235.08,-177.67"/>
<polygon fill="black" stroke="black" points="1235.31,-181.17 1244.76,-176.38 1234.38,-174.23 1235.31,-181.17"/>
<text text-anchor="middle" x="1085.62" y="-189.12" font-family="Times,serif" font-size="14.00">Return results for follow&#45;up</text>
</g>
<!-- EXT -->
<g id="node6" class="node">
<title>EXT</title>
<polygon fill="none" stroke="black" points="1357,-67.17 1222.5,-67.17 1222.5,-31.17 1357,-31.17 1357,-67.17"/>
<text text-anchor="middle" x="1289.75" y="-46.04" font-family="Times,serif" font-size="10.00">Extensions (MCP tools)</text>
</g>
<!-- AE&#45;&gt;EXT -->
<g id="edge6" class="edge">
<title>AE&#45;&gt;EXT</title>
<path fill="none" stroke="black" d="M918.96,-110.85C929.77,-96.64 946.79,-77.91 966.75,-68.92 1008.75,-49.99 1129.75,-47.24 1210.86,-47.68"/>
<polygon fill="black" stroke="black" points="1210.49,-51.18 1220.52,-47.75 1210.54,-44.18 1210.49,-51.18"/>
<text text-anchor="middle" x="1085.62" y="-73.12" font-family="Times,serif" font-size="14.00">Execute tool(s)</text>
</g>
<!-- LLM&#45;&gt;AE -->
<g id="edge5" class="edge">
<title>LLM&#45;&gt;AE</title>
<path fill="none" stroke="black" d="M1246.13,-158.08C1232.88,-155 1218.15,-151.94 1204.5,-149.92 1119.85,-137.38 1020.53,-132.38 960.61,-130.42"/>
<polygon fill="black" stroke="black" points="960.78,-126.92 950.68,-130.11 960.56,-133.92 960.78,-126.92"/>
<text text-anchor="middle" x="1085.62" y="-153.12" font-family="Times,serif" font-size="14.00">Response (may include tool calls)</text>
</g>
<!-- LLM&#45;&gt;AE -->
<g id="edge9" class="edge">
<title>LLM&#45;&gt;AE</title>
<path fill="none" stroke="black" d="M1270.27,-150.68C1254.37,-136.17 1230.01,-117.1 1204.5,-108.92 1103.88,-76.64 1071.03,-91.86 966.75,-108.92 964.59,-109.27 962.39,-109.69 960.19,-110.17"/>
<polygon fill="black" stroke="black" points="959.49,-106.74 950.65,-112.57 961.2,-113.52 959.49,-106.74"/>
<text text-anchor="middle" x="1085.62" y="-113.12" font-family="Times,serif" font-size="14.00">Final/Next</text>
</g>
<!-- EXT&#45;&gt;AE -->
<g id="edge7" class="edge">
<title>EXT&#45;&gt;AE</title>
<path fill="none" stroke="black" d="M1242.24,-30.74C1176.22,-7.77 1053.72,22.78 966.75,-26.92 939.57,-42.45 923.43,-75.56 914.8,-99.92"/>
<polygon fill="black" stroke="black" points="911.52,-98.69 911.72,-109.29 918.17,-100.88 911.52,-98.69"/>
<text text-anchor="middle" x="1085.62" y="-31.12" font-family="Times,serif" font-size="14.00">Tool results</text>
</g>
</g>
</svg>
