<?xml version="1.0" encoding="UTF-8" standalone="no"?>
<!DOCTYPE svg PUBLIC "-//W3C//DTD SVG 1.1//EN"
 "http://www.w3.org/Graphics/SVG/1.1/DTD/svg11.dtd">
<!-- Generated by graphviz version 9.0.0 (20230911.1827)
 -->
<!-- Title: G Pages: 1 -->
<svg width="969pt" height="726pt"
 viewBox="0.00 0.00 969.25 726.00" xmlns="http://www.w3.org/2000/svg" xmlns:xlink="http://www.w3.org/1999/xlink">
<g id="graph0" class="graph" transform="scale(1 1) rotate(0) translate(4 722)">
<title>G</title>
<polygon fill="white" stroke="none" points="-4,4 -4,-722 965.25,-722 965.25,4 -4,4"/>
<g id="clust1" class="cluster">
<title>cluster_interface</title>
<path fill="none" stroke="gray" d="M20,-282C20,-282 147.25,-282 147.25,-282 153.25,-282 159.25,-288 159.25,-294 159.25,-294 159.25,-455 159.25,-455 159.25,-461 153.25,-467 147.25,-467 147.25,-467 20,-467 20,-467 14,-467 8,-461 8,-455 8,-455 8,-294 8,-294 8,-288 14,-282 20,-282"/>
<text text-anchor="middle" x="83.62" y="-449.7" font-family="Times,serif" font-size="14.00">Interface</text>
</g>
<g id="clust2" class="cluster">
<title>cluster_server</title>
<path fill="none" stroke="gray" d="M191.25,-336C191.25,-336 410.25,-336 410.25,-336 416.25,-336 422.25,-342 422.25,-348 422.25,-348 422.25,-401 422.25,-401 422.25,-407 416.25,-413 410.25,-413 410.25,-413 191.25,-413 191.25,-413 185.25,-413 179.25,-407 179.25,-401 179.25,-401 179.25,-348 179.25,-348 179.25,-342 185.25,-336 191.25,-336"/>
<text text-anchor="middle" x="300.75" y="-395.7" font-family="Times,serif" font-size="14.00">Server</text>
</g>
<g id="clust3" class="cluster">
<title>cluster_agent</title>
<path fill="none" stroke="gray" d="M454.25,-147C454.25,-147 772.62,-147 772.62,-147 778.62,-147 784.62,-153 784.62,-159 784.62,-159 784.62,-698 784.62,-698 784.62,-704 778.62,-710 772.62,-710 772.62,-710 454.25,-710 454.25,-710 448.25,-710 442.25,-704 442.25,-698 442.25,-698 442.25,-159 442.25,-159 442.25,-153 448.25,-147 454.25,-147"/>
<text text-anchor="middle" x="613.44" y="-692.7" font-family="Times,serif" font-size="14.00">Agent Engine (crates/goose)</text>
</g>
<g id="clust4" class="cluster">
<title>cluster_ext</title>
<path fill="none" stroke="gray" d="M565.5,-8C565.5,-8 779,-8 779,-8 785,-8 791,-14 791,-20 791,-20 791,-127 791,-127 791,-133 785,-139 779,-139 779,-139 565.5,-139 565.5,-139 559.5,-139 553.5,-133 553.5,-127 553.5,-127 553.5,-20 553.5,-20 553.5,-14 559.5,-8 565.5,-8"/>
<text text-anchor="middle" x="672.25" y="-121.7" font-family="Times,serif" font-size="14.00">MCP Extensions</text>
</g>
<g id="clust5" class="cluster">
<title>cluster_sched</title>
<path fill="none" stroke="gray" d="M823,-525C823,-525 941.25,-525 941.25,-525 947.25,-525 953.25,-531 953.25,-537 953.25,-537 953.25,-590 953.25,-590 953.25,-596 947.25,-602 941.25,-602 941.25,-602 823,-602 823,-602 817,-602 811,-596 811,-590 811,-590 811,-537 811,-537 811,-531 817,-525 823,-525"/>
<text text-anchor="middle" x="882.12" y="-584.7" font-family="Times,serif" font-size="14.00">Scheduler</text>
</g>
<!-- UI -->
<g id="node1" class="node">
<title>UI</title>
<polygon fill="none" stroke="black" points="151.25,-434 16,-434 16,-398 151.25,-398 151.25,-434"/>
<text text-anchor="middle" x="83.62" y="-412.88" font-family="Times,serif" font-size="10.00">Desktop App (Electron)</text>
</g>
<!-- OA -->
<g id="node5" class="node">
<title>OA</title>
<polygon fill="none" stroke="black" points="249,-380 187.25,-380 187.25,-344 249,-344 249,-380"/>
<text text-anchor="middle" x="218.12" y="-358.88" font-family="Times,serif" font-size="10.00">OpenAPI</text>
</g>
<!-- UI&#45;&gt;OA -->
<g id="edge1" class="edge">
<title>UI&#45;&gt;OA</title>
<path fill="none" stroke="black" d="M137.44,-397.56C144.81,-394.79 152.25,-391.89 159.25,-389 164.95,-386.64 170.91,-384.04 176.74,-381.4"/>
<polygon fill="black" stroke="black" points="178.02,-384.66 185.64,-377.3 175.09,-378.3 178.02,-384.66"/>
</g>
<!-- CLI -->
<g id="node2" class="node">
<title>CLI</title>
<polygon fill="none" stroke="black" points="110.62,-380 56.62,-380 56.62,-344 110.62,-344 110.62,-380"/>
<text text-anchor="middle" x="83.62" y="-358.88" font-family="Times,serif" font-size="10.00">CLI</text>
</g>
<!-- CLI&#45;&gt;OA -->
<g id="edge2" class="edge">
<title>CLI&#45;&gt;OA</title>
<path fill="none" stroke="black" d="M111.12,-362C129.6,-362 154.63,-362 175.72,-362"/>
<polygon fill="black" stroke="black" points="175.46,-365.5 185.46,-362 175.46,-358.5 175.46,-365.5"/>
</g>
<!-- ACP -->
<g id="node3" class="node">
<title>ACP</title>
<polygon fill="none" stroke="black" points="121.62,-326 45.62,-326 45.62,-290 121.62,-290 121.62,-326"/>
<text text-anchor="middle" x="83.62" y="-304.88" font-family="Times,serif" font-size="10.00">ACP Clients</text>
</g>
<!-- GO -->
<g id="node4" class="node">
<title>GO</title>
<polygon fill="none" stroke="black" points="414.25,-380 285,-380 285,-344 414.25,-344 414.25,-380"/>
<text text-anchor="middle" x="349.62" y="-358.88" font-family="Times,serif" font-size="10.00">goose&#45;server (goosed)</text>
</g>
<!-- ACP&#45;&gt;GO -->
<g id="edge3" class="edge">
<title>ACP&#45;&gt;GO</title>
<path fill="none" stroke="black" d="M122.04,-313.04C155.49,-317.8 205.76,-325.61 249,-335 256.95,-336.72 265.21,-338.69 273.42,-340.75"/>
<polygon fill="black" stroke="black" points="272.53,-344.13 283.09,-343.23 274.27,-337.35 272.53,-344.13"/>
</g>
<!-- AG -->
<g id="node6" class="node">
<title>AG</title>
<polygon fill="none" stroke="black" points="525.5,-380 450.25,-380 450.25,-344 525.5,-344 525.5,-380"/>
<text text-anchor="middle" x="487.88" y="-358.88" font-family="Times,serif" font-size="10.00">Agent Loop</text>
</g>
<!-- GO&#45;&gt;AG -->
<g id="edge5" class="edge">
<title>GO&#45;&gt;AG</title>
<path fill="none" stroke="black" d="M414.36,-362C422.46,-362 430.63,-362 438.43,-362"/>
<polygon fill="black" stroke="black" points="438.41,-365.5 448.41,-362 438.41,-358.5 438.41,-365.5"/>
</g>
<!-- OA&#45;&gt;GO -->
<g id="edge4" class="edge">
<title>OA&#45;&gt;GO</title>
<path fill="none" stroke="black" d="M249.49,-362C256.73,-362 264.79,-362 273.09,-362"/>
<polygon fill="black" stroke="black" points="272.99,-365.5 282.99,-362 272.99,-358.5 272.99,-365.5"/>
</g>
<!-- PRV -->
<g id="node7" class="node">
<title>PRV</title>
<polygon fill="none" stroke="black" points="704.62,-191 639.88,-191 639.88,-155 704.62,-155 704.62,-191"/>
<text text-anchor="middle" x="672.25" y="-169.88" font-family="Times,serif" font-size="10.00">Providers</text>
</g>
<!-- AG&#45;&gt;PRV -->
<g id="edge6" class="edge">
<title>AG&#45;&gt;PRV</title>
<path fill="none" stroke="black" d="M490.73,-343.51C495.15,-309.66 509.46,-237.72 553.5,-200 574.06,-182.39 603.81,-175.67 628.27,-173.34"/>
<polygon fill="black" stroke="black" points="628.2,-176.86 637.92,-172.65 627.7,-169.88 628.2,-176.86"/>
</g>
<!-- ROUT -->
<g id="node8" class="node">
<title>ROUT</title>
<polygon fill="none" stroke="black" points="709.5,-245 635,-245 635,-209 709.5,-209 709.5,-245"/>
<text text-anchor="middle" x="672.25" y="-223.88" font-family="Times,serif" font-size="10.00">Tool Router</text>
</g>
<!-- AG&#45;&gt;ROUT -->
<g id="edge7" class="edge">
<title>AG&#45;&gt;ROUT</title>
<path fill="none" stroke="black" d="M494.75,-343.58C503.51,-319.18 522.39,-276.61 553.5,-254 573.67,-239.34 600.51,-232.47 623.47,-229.32"/>
<polygon fill="black" stroke="black" points="623.69,-232.82 633.22,-228.2 622.88,-225.87 623.69,-232.82"/>
</g>
<!-- SHIM -->
<g id="node9" class="node">
<title>SHIM</title>
<polygon fill="none" stroke="black" points="705.38,-299 639.12,-299 639.12,-263 705.38,-263 705.38,-299"/>
<text text-anchor="middle" x="672.25" y="-277.88" font-family="Times,serif" font-size="10.00">Tool Shim</text>
</g>
<!-- AG&#45;&gt;SHIM -->
<g id="edge8" class="edge">
<title>AG&#45;&gt;SHIM</title>
<path fill="none" stroke="black" d="M506.15,-343.62C518.31,-331.74 535.56,-316.91 553.5,-308 576.56,-296.55 604.58,-289.88 627.5,-286.03"/>
<polygon fill="black" stroke="black" points="627.79,-289.52 637.14,-284.54 626.72,-282.6 627.79,-289.52"/>
</g>
<!-- SESS -->
<g id="node10" class="node">
<title>SESS</title>
<polygon fill="none" stroke="black" points="744,-353 600.5,-353 600.5,-317 744,-317 744,-353"/>
<text text-anchor="middle" x="672.25" y="-331.88" font-family="Times,serif" font-size="10.00">Session &amp; Context Mgmt</text>
</g>
<!-- AG&#45;&gt;SESS -->
<g id="edge9" class="edge">
<title>AG&#45;&gt;SESS</title>
<path fill="none" stroke="black" d="M525.78,-356.54C544.03,-353.83 566.85,-350.46 588.96,-347.18"/>
<polygon fill="black" stroke="black" points="589.21,-350.68 598.58,-345.76 588.18,-343.76 589.21,-350.68"/>
</g>
<!-- PERM -->
<g id="node11" class="node">
<title>PERM</title>
<polygon fill="none" stroke="black" points="776.62,-407 567.88,-407 567.88,-371 776.62,-371 776.62,-407"/>
<text text-anchor="middle" x="672.25" y="-385.88" font-family="Times,serif" font-size="10.00">Permission Modes &amp; Tool Permissions</text>
</g>
<!-- AG&#45;&gt;PERM -->
<g id="edge10" class="edge">
<title>AG&#45;&gt;PERM</title>
<path fill="none" stroke="black" d="M525.78,-367.46C535.07,-368.84 545.54,-370.39 556.5,-372.01"/>
<polygon fill="black" stroke="black" points="555.69,-375.43 566.1,-373.43 556.72,-368.51 555.69,-375.43"/>
</g>
<!-- SEC -->
<g id="node12" class="node">
<title>SEC</title>
<polygon fill="none" stroke="black" points="748.88,-461 595.62,-461 595.62,-425 748.88,-425 748.88,-461"/>
<text text-anchor="middle" x="672.25" y="-439.88" font-family="Times,serif" font-size="10.00">Security (Prompt Injection)</text>
</g>
<!-- AG&#45;&gt;SEC -->
<g id="edge11" class="edge">
<title>AG&#45;&gt;SEC</title>
<path fill="none" stroke="black" d="M506.15,-380.38C518.31,-392.26 535.56,-407.09 553.5,-416 563.22,-420.83 573.82,-424.8 584.56,-428.08"/>
<polygon fill="black" stroke="black" points="583.27,-431.35 593.85,-430.71 585.18,-424.62 583.27,-431.35"/>
</g>
<!-- ERR -->
<g id="node13" class="node">
<title>ERR</title>
<polygon fill="none" stroke="black" points="719.25,-515 625.25,-515 625.25,-479 719.25,-479 719.25,-515"/>
<text text-anchor="middle" x="672.25" y="-493.88" font-family="Times,serif" font-size="10.00">Error Handling</text>
</g>
<!-- AG&#45;&gt;ERR -->
<g id="edge12" class="edge">
<title>AG&#45;&gt;ERR</title>
<path fill="none" stroke="black" d="M494.75,-380.42C503.51,-404.82 522.39,-447.39 553.5,-470 570.89,-482.64 593.24,-489.49 613.78,-493.15"/>
<polygon fill="black" stroke="black" points="613.05,-496.58 623.47,-494.65 614.12,-489.66 613.05,-496.58"/>
</g>
<!-- SCH -->
<g id="node14" class="node">
<title>SCH</title>
<polygon fill="none" stroke="black" points="719.25,-569 625.25,-569 625.25,-533 719.25,-533 719.25,-569"/>
<text text-anchor="middle" x="672.25" y="-547.88" font-family="Times,serif" font-size="10.00">Scheduler APIs</text>
</g>
<!-- AG&#45;&gt;SCH -->
<g id="edge15" class="edge">
<title>AG&#45;&gt;SCH</title>
<path fill="none" stroke="black" d="M490.73,-380.49C495.15,-414.34 509.46,-486.28 553.5,-524 570.03,-538.16 592.51,-545.28 613.4,-548.73"/>
<polygon fill="black" stroke="black" points="612.91,-552.2 623.29,-550.09 613.86,-545.26 612.91,-552.2"/>
</g>
<!-- LOG -->
<g id="node15" class="node">
<title>LOG</title>
<polygon fill="none" stroke="black" points="722.62,-623 621.88,-623 621.88,-587 722.62,-587 722.62,-623"/>
<text text-anchor="middle" x="672.25" y="-601.88" font-family="Times,serif" font-size="10.00">Logging/Tracing</text>
</g>
<!-- AG&#45;&gt;LOG -->
<g id="edge13" class="edge">
<title>AG&#45;&gt;LOG</title>
<path fill="none" stroke="black" d="M488.59,-380.49C489.02,-422.24 496.22,-524.35 553.5,-578 568.8,-592.34 590.12,-599.59 610.41,-603.11"/>
<polygon fill="black" stroke="black" points="609.64,-606.54 620.03,-604.49 610.63,-599.61 609.64,-606.54"/>
</g>
<!-- CFG -->
<g id="node16" class="node">
<title>CFG</title>
<polygon fill="none" stroke="black" points="708.75,-677 635.75,-677 635.75,-641 708.75,-641 708.75,-677"/>
<text text-anchor="middle" x="672.25" y="-655.88" font-family="Times,serif" font-size="10.00">Config/Env</text>
</g>
<!-- AG&#45;&gt;CFG -->
<g id="edge14" class="edge">
<title>AG&#45;&gt;CFG</title>
<path fill="none" stroke="black" d="M490.77,-380.39C496.8,-435.24 517.29,-596.13 553.5,-632 571.88,-650.2 599.87,-657.13 623.96,-659.43"/>
<polygon fill="black" stroke="black" points="623.68,-662.92 633.9,-660.11 624.16,-655.93 623.68,-662.92"/>
</g>
<!-- BEXT -->
<g id="node17" class="node">
<title>BEXT</title>
<polygon fill="none" stroke="black" points="783,-106 561.5,-106 561.5,-70 783,-70 783,-106"/>
<text text-anchor="middle" x="672.25" y="-84.88" font-family="Times,serif" font-size="10.00">Built&#45;in Extensions (developer, memory)</text>
</g>
<!-- AG&#45;&gt;BEXT -->
<g id="edge16" class="edge">
<title>AG&#45;&gt;BEXT</title>
<path fill="none" stroke="black" d="M489.38,-343.77C491.44,-302.96 501.8,-203.11 553.5,-143 565.14,-129.47 580.82,-119.05 596.94,-111.11"/>
<polygon fill="black" stroke="black" points="598.01,-114.48 605.63,-107.12 595.08,-108.12 598.01,-114.48"/>
</g>
<!-- HEXT -->
<g id="node18" class="node">
<title>HEXT</title>
<polygon fill="none" stroke="black" points="736.88,-52 607.62,-52 607.62,-16 736.88,-16 736.88,-52"/>
<text text-anchor="middle" x="672.25" y="-30.88" font-family="Times,serif" font-size="10.00">External MCP Servers</text>
</g>
<!-- AG&#45;&gt;HEXT -->
<g id="edge17" class="edge">
<title>AG&#45;&gt;HEXT</title>
<path fill="none" stroke="black" d="M490.28,-343.64C495.16,-284.7 513.34,-101.72 553.5,-61 564.99,-49.35 580.41,-42.3 596.29,-38.11"/>
<polygon fill="black" stroke="black" points="596.85,-41.58 605.85,-35.99 595.33,-34.74 596.85,-41.58"/>
</g>
<!-- TEMP -->
<g id="node19" class="node">
<title>TEMP</title>
<polygon fill="none" stroke="black" points="945.25,-569 819,-569 819,-533 945.25,-533 945.25,-569"/>
<text text-anchor="middle" x="882.12" y="-547.88" font-family="Times,serif" font-size="10.00">temporal&#45;service (Go)</text>
</g>
<!-- SCH&#45;&gt;TEMP -->
<g id="edge18" class="edge">
<title>SCH&#45;&gt;TEMP</title>
<path fill="none" stroke="black" d="M719.64,-551C745.42,-551 778.09,-551 807.29,-551"/>
<polygon fill="black" stroke="black" points="807.2,-554.5 817.2,-551 807.2,-547.5 807.2,-554.5"/>
</g>
</g>
</svg>
